<svg xmlns="http://www.w3.org/2000/svg" viewBox="0 0 433.64 136"><defs><style>.cls-1{fill:#fff;}.cls-2{fill:#273859;}.cls-3{fill:#fcb017;}.cls-4{fill:#f78e1e;}.cls-5{fill:#111;}</style></defs><title>logo-full-black</title><g id="Layer_2" data-name="Layer 2"><g id="full-logo"><circle id="bg" class="cls-1" cx="68.3" cy="68" r="67.17"/><path id="head" class="cls-1" d="M133.11,56.67a44.45,44.45,0,0,1-81.87,24,48.19,48.19,0,0,0,9.28.89,49,49,0,0,0,44-27.48,49.73,49.73,0,0,0,2-4.8c.08-.25.18-.49.25-.74s.25-.71.36-1.07a49.14,49.14,0,0,0-.6-31.49,47.5,47.5,0,0,0-2.41-5.57A68.18,68.18,0,0,1,126.5,33.32c.72,1.2,1.39,2.41,2,3.65l.21.42A44.28,44.28,0,0,1,133.11,56.67Z"/><path id="ear" class="cls-1" d="M109.43,34.7c-.52,8.65-1.45,10.1-3,14.79-.11.36-.42,1-.54,1.37s-.17.49-.26.74a37.06,37.06,0,0,1-2.38,4.81A45.48,45.48,0,0,1,95,30.2a42.6,42.6,0,0,1,2.86-14.43c0-.12.09-.25.14-.38a44.68,44.68,0,0,1,1.66-4.72c.34-.7.67-1.61,1-2.28a18.82,18.82,0,0,1,3.42,2c1,.62,1.83,3.47,3,7.46A47.84,47.84,0,0,1,109.43,34.7Z"/><path id="body" class="cls-1" d="M136,68c0,1.45-.05,2.89-.14,4.32A68,68,0,1,1,100.74,8.39,43,43,0,0,0,98.79,13c-.05.12-.1.26-.14.38A44.48,44.48,0,0,0,44.26,54.48c0,.72,0,1.45,0,2.19a44.45,44.45,0,1,0,84.52-19.28A67.67,67.67,0,0,1,136,68Z"/><g id="type"><path class="cls-1" d="M166.24,65.85h-8.7L152.27,96.3h-4.19l5.27-30.45h-8.7l.66-3.68H166.9Z"/><path class="cls-1" d="M173.29,73.56c1.9-2.11,4-3.13,6.17-3.07a4.91,4.91,0,0,1,3.83,1.61,7.18,7.18,0,0,1,1.58,4.42,18.45,18.45,0,0,1-.07,3.16L182,96.3h-4l2.78-16.69.1-1.85c0-2.39-1-3.61-2.95-3.66q-2.41-.06-4.5,2.74l-.71,1L169.54,96.3h-4l6.26-36h4.05Z"/><path class="cls-1" d="M197.67,96.77a7.39,7.39,0,0,1-6.38-3.07c-1.4-2-1.92-4.77-1.54-8.25l.3-2.51a17.15,17.15,0,0,1,3.6-9.25,8.88,8.88,0,0,1,7.3-3.22,6.64,6.64,0,0,1,5.43,2.47,10.46,10.46,0,0,1,1.72,6.69l-.21,2.82-.35,2.41-13.6,0a22.65,22.65,0,0,0-.28,3.3,5.82,5.82,0,0,0,1.17,3.72A4,4,0,0,0,198,93.23a6.81,6.81,0,0,0,3-.6,10.47,10.47,0,0,0,3.08-2.26L206,93a8.87,8.87,0,0,1-3.7,2.88A11.37,11.37,0,0,1,197.67,96.77Zm3-22.76c-2.76-.13-4.7,1.55-5.81,5l-.63,2.28,9.72,0,.12-.61a16.38,16.38,0,0,0,.14-2.25C204.17,75.62,203,74.13,200.69,74Z"/><path class="cls-1" d="M224.29,74.81a8.3,8.3,0,0,0-1.8-.22c-2.05,0-3.73,1.18-5.06,3.54L214.29,96.3h-4.06l4.41-25.36,3.91,0L218,73.52c1.48-2.11,3.16-3.14,5-3.1a9.57,9.57,0,0,1,1.73.35Z"/><path class="cls-1" d="M232.83,70.91l-.5,2.37a8,8,0,0,1,6.24-2.81,6.05,6.05,0,0,1,3.24,1,4.94,4.94,0,0,1,2,2.7c2-2.49,4.32-3.72,6.92-3.68a5.5,5.5,0,0,1,4,1.61,6.93,6.93,0,0,1,1.71,4.32,17.65,17.65,0,0,1,0,3.25L253.64,96.3h-4l2.77-16.71.07-2a3.94,3.94,0,0,0-.88-2.59,3,3,0,0,0-2.38-.93,4.34,4.34,0,0,0-3.33,1.5,6.64,6.64,0,0,0-1.8,3.68v.12l-2.89,16.9h-4.08l2.79-16.69a12.22,12.22,0,0,0,0-1.92q-.16-3.45-3.19-3.56T232,77.27l-3.28,19h-4l4.4-25.36Z"/><path class="cls-1" d="M261.56,82.49a16.39,16.39,0,0,1,3.74-8.8,9.24,9.24,0,0,1,7.49-3.22,7.39,7.39,0,0,1,4.68,1.63,8.58,8.58,0,0,1,2.69,4.3,15.18,15.18,0,0,1,.43,6l-.28,2.39a16.16,16.16,0,0,1-3.75,8.74,9.33,9.33,0,0,1-7.48,3.19,7.44,7.44,0,0,1-4.68-1.62,8.5,8.5,0,0,1-2.69-4.29,15.07,15.07,0,0,1-.43-6Zm3.63,4.06a9.08,9.08,0,0,0,1,4.87,3.62,3.62,0,0,0,3.15,1.83,5.39,5.39,0,0,0,4.5-1.93,12,12,0,0,0,2.39-6.16l.35-2.74.12-1.68a9,9,0,0,0-1-4.9A3.66,3.66,0,0,0,272.53,74a5.29,5.29,0,0,0-4.61,2.28A13.78,13.78,0,0,0,265.54,83l-.28,2.32Z"/><path class="cls-1" d="M300.16,87.49a5.16,5.16,0,0,0-.7-3.58,9,9,0,0,0-4-2.75,18.35,18.35,0,0,1-4.61-2.7,8.27,8.27,0,0,1-3-7.26,10,10,0,0,1,3.37-6.86,10.21,10.21,0,0,1,7.32-2.64,8.31,8.31,0,0,1,6.52,3A10,10,0,0,1,307.12,72H302.9a7.4,7.4,0,0,0-1-4.91,4.27,4.27,0,0,0-3.65-1.73A5.9,5.9,0,0,0,294,66.92a6.45,6.45,0,0,0-2,4.19,4.48,4.48,0,0,0,.89,3.39,9.55,9.55,0,0,0,3.93,2.66,17.68,17.68,0,0,1,4.39,2.5,8.53,8.53,0,0,1,3.12,7.78,9.77,9.77,0,0,1-3.36,6.8,10.75,10.75,0,0,1-7.56,2.53,9.07,9.07,0,0,1-6.87-3,9.88,9.88,0,0,1-2.34-7.39l4.22,0a6.74,6.74,0,0,0,1.12,4.83,5,5,0,0,0,4.1,1.85A6.15,6.15,0,0,0,298,91.66,6.25,6.25,0,0,0,300.16,87.49Z"/><path class="cls-1" d="M317.32,96.77a7.38,7.38,0,0,1-6.38-3.07c-1.4-2-1.92-4.77-1.54-8.25l.3-2.51c.49-3.94,1.68-7,3.6-9.25a8.88,8.88,0,0,1,7.3-3.22A6.62,6.62,0,0,1,326,72.94c1.22,1.59,1.79,3.82,1.73,6.69l-.21,2.82-.35,2.41-13.6,0a21.31,21.31,0,0,0-.28,3.3,5.82,5.82,0,0,0,1.17,3.72,4,4,0,0,0,3.21,1.37,6.81,6.81,0,0,0,3-.6,10.59,10.59,0,0,0,3.08-2.26l1.9,2.65a8.93,8.93,0,0,1-3.7,2.88A11.37,11.37,0,0,1,317.32,96.77Zm3-22.76c-2.76-.13-4.7,1.55-5.81,5l-.63,2.28,9.72,0,.12-.61a18.12,18.12,0,0,0,.14-2.25C323.82,75.62,322.64,74.13,320.34,74Z"/><path class="cls-1" d="M339,93.27A4.39,4.39,0,0,0,342.4,92a7.16,7.16,0,0,0,1.89-3.7l3.82,0A10,10,0,0,1,345,94.47a8.44,8.44,0,0,1-6.14,2.32,7.55,7.55,0,0,1-5.34-2,8.65,8.65,0,0,1-2.39-5.46,18.23,18.23,0,0,1,0-4.24l.33-2.55q.76-5.94,3.62-9a9.23,9.23,0,0,1,7.42-3,6.74,6.74,0,0,1,5.45,2.58,9.92,9.92,0,0,1,1.77,6.63l-3.83,0c.1-3.67-1.11-5.56-3.63-5.65q-5.5-.21-6.65,7.85a37.22,37.22,0,0,0-.59,6.8Q335.23,93.21,339,93.27Z"/><path class="cls-1" d="M364.78,94.07a7.48,7.48,0,0,1-6.07,2.72,5,5,0,0,1-4.14-2,8.79,8.79,0,0,1-1.44-5.37l.12-2.13L356,70.94h4l-2.72,16.47-.09,1.71a5,5,0,0,0,.55,2.83,2.19,2.19,0,0,0,1.93,1.16c2.27.11,4.12-1,5.58-3.36l3.23-18.81h4.06L368.15,96.3h-3.82Z"/><path class="cls-1" d="M388.43,74.81a8.38,8.38,0,0,0-1.81-.22q-3.06,0-5.06,3.54L378.42,96.3h-4.06l4.41-25.36,3.92,0-.57,2.61q2.24-3.17,5-3.1a9.57,9.57,0,0,1,1.73.35Z"/><path class="cls-1" d="M393.14,96.3h-4.06l4.41-25.36h4.05Zm1.29-32.06a2.94,2.94,0,0,1,.65-1.76,2.17,2.17,0,0,1,1.67-.8,2,2,0,0,1,1.66.68,2.42,2.42,0,0,1,.61,1.8,2.82,2.82,0,0,1-.67,1.77,2.13,2.13,0,0,1-1.67.77A2,2,0,0,1,395,66,2.46,2.46,0,0,1,394.43,64.24Z"/><path class="cls-1" d="M410.44,64.8l-1.08,6.14h3.72l-.58,3.35h-3.71l-2.67,15.77,0,.94c-.07,1.33.41,2,1.43,2a6.82,6.82,0,0,0,1.68-.23l-.35,3.54a7.14,7.14,0,0,1-2.65.42A3.53,3.53,0,0,1,403,95a8.12,8.12,0,0,1-.79-5l2.57-15.7H401l.61-3.35h3.73l1.07-6.14Z"/><path class="cls-1" d="M421.52,89.34l7.69-18.4h4.43l-13.13,29.3a13.1,13.1,0,0,1-3.17,4.81,5.6,5.6,0,0,1-4,1.56,13.14,13.14,0,0,1-2.3-.42l.4-3.52.87.14q3.07.15,4.78-3.14l1.71-3.84-2.86-24.89h4.27Z"/><path class="cls-1" d="M159.85,54.59v-9.4H151.1v9.4h-7.95V29.82h7.95v9h8.75v-9h8V54.59Z"/><path class="cls-1" d="M190.32,37.69q2.87,2.54,2.87,7.39t-2.87,7.4c-1.9,1.69-4.53,2.54-7.86,2.54s-6-.84-7.85-2.52-2.84-4.15-2.84-7.42.94-5.73,2.84-7.41,4.51-2.52,7.85-2.52S188.42,36,190.32,37.69Zm-11.39,6.38v2.06c0,2.69,1.17,4,3.53,4s3.56-1.34,3.56-4V44.07Q186,40,182.46,40C180.1,40,178.93,41.36,178.93,44.07Z"/><path class="cls-1" d="M210.43,54.59,210,51.71A7.68,7.68,0,0,1,207,54.14a8.82,8.82,0,0,1-3.84.88,6.31,6.31,0,0,1-5-1.84,7.59,7.59,0,0,1-1.66-5.29V35.58h7.16V47a2.92,2.92,0,0,0,.63,2,2.23,2.23,0,0,0,1.78.74,2.88,2.88,0,0,0,2.17-.87,2.94,2.94,0,0,0,.82-2.12V35.58h7.17v19Z"/><path class="cls-1" d="M236.15,36.64a5,5,0,0,1,2.65,4.63h-6.66a1.52,1.52,0,0,0-.94-1.48,3.29,3.29,0,0,0-1.62-.36c-1.73,0-2.59.41-2.59,1.23,0,.45.3.78.9,1a23.07,23.07,0,0,0,3,.61,31,31,0,0,1,4.21.85,6.93,6.93,0,0,1,3,1.72,4.67,4.67,0,0,1,1.26,3.48,5.49,5.49,0,0,1-2.72,5.18A14.35,14.35,0,0,1,229.44,55a15.64,15.64,0,0,1-4.75-.7,8.4,8.4,0,0,1-3.64-2.18,5.19,5.19,0,0,1-1.41-3.74h6.67v.14a1.79,1.79,0,0,0,1,1.71,4.77,4.77,0,0,0,2.11.49c2,0,3-.47,3-1.41,0-.48-.32-.83-.94-1a20.56,20.56,0,0,0-3.06-.69,33.82,33.82,0,0,1-4.2-.93A7,7,0,0,1,221.37,45a4.55,4.55,0,0,1-1.22-3.37,5.24,5.24,0,0,1,2.64-5,14.18,14.18,0,0,1,6.9-1.47A13,13,0,0,1,236.15,36.64Z"/><path class="cls-1" d="M260.45,37.59c1.84,1.64,2.75,4.13,2.75,7.49v1.23H249a4.49,4.49,0,0,0,.92,3.09,3.63,3.63,0,0,0,2.89,1.05,3.87,3.87,0,0,0,2.65-.76,2.57,2.57,0,0,0,.85-2h6.94a6.32,6.32,0,0,1-2.62,5.39c-1.76,1.3-4.31,2-7.67,2q-5.29,0-8.21-2.47c-1.94-1.64-2.92-4.13-2.92-7.47s.95-5.73,2.85-7.41,4.51-2.52,7.85-2.52S258.61,36,260.45,37.59ZM249,42.92h7a3,3,0,0,0-3.21-3.2Q249.39,39.72,249,42.92Z"/><path class="cls-1" d="M287.68,32.14q3.21,2.76,3.21,7.87h-7.6a5,5,0,0,0-1.13-3.42,4.84,4.84,0,0,0-6.77.25,6.86,6.86,0,0,0-1.13,4.21v2.31a6.88,6.88,0,0,0,1.13,4.19,4,4,0,0,0,3.47,1.53,4.77,4.77,0,0,0,3.5-1.19,4.53,4.53,0,0,0,1.18-3.35h7.35q0,5.09-3.12,7.78c-2.07,1.8-5,2.7-8.8,2.7q-6.33,0-9.59-3.24t-3.26-9.58q0-6.33,3.26-9.57T279,29.39C282.64,29.39,285.55,30.3,287.68,32.14Z"/><path class="cls-1" d="M312.36,37.69q2.86,2.54,2.86,7.39t-2.86,7.4A11.45,11.45,0,0,1,304.5,55q-5,0-7.85-2.52t-2.85-7.42q0-4.89,2.85-7.41t7.85-2.52C307.83,35.15,310.45,36,312.36,37.69ZM301,44.07v2.06c0,2.69,1.17,4,3.53,4s3.56-1.34,3.56-4V44.07q0-4.07-3.56-4.06C302.14,40,301,41.36,301,44.07Z"/><path class="cls-1" d="M348.78,37a7.79,7.79,0,0,1,1.62,5.28V54.59h-7.17V43.14a3.05,3.05,0,0,0-.59-2,2.05,2.05,0,0,0-1.68-.74,2.67,2.67,0,0,0-2,.86,3,3,0,0,0-.79,2.13V54.59H331V43.14a3,3,0,0,0-.6-2,2,2,0,0,0-1.67-.74,2.66,2.66,0,0,0-2.05.86,3,3,0,0,0-.8,2.13V54.59h-7.16v-19h5.87l.47,2.84A7.63,7.63,0,0,1,327.88,36a8.34,8.34,0,0,1,3.76-.88q4.29,0,5.76,3.27a8.21,8.21,0,0,1,6.52-3.27A6.13,6.13,0,0,1,348.78,37Z"/></g><circle id="bg-2" data-name="bg" class="cls-2" cx="68.3" cy="68" r="67.17"/><path id="head-2" data-name="head" class="cls-3" d="M133.11,56.67a44.45,44.45,0,0,1-81.87,24,48.19,48.19,0,0,0,9.28.89,49,49,0,0,0,44-27.48,49.73,49.73,0,0,0,2-4.8c.08-.25.18-.49.25-.74s.25-.71.36-1.07a49.14,49.14,0,0,0-.6-31.49,47.5,47.5,0,0,0-2.41-5.57A68.18,68.18,0,0,1,126.5,33.32c.72,1.2,1.39,2.41,2,3.65l.21.42A44.28,44.28,0,0,1,133.11,56.67Z"/><path id="ear-2" data-name="ear" class="cls-1" d="M109.43,34.7c-.52,8.65-1.45,10.1-3,14.79-.11.36-.42,1-.54,1.37s-.17.49-.26.74a37.06,37.06,0,0,1-2.38,4.81A45.48,45.48,0,0,1,95,30.2a42.6,42.6,0,0,1,2.86-14.43c0-.12.09-.25.14-.38a44.68,44.68,0,0,1,1.66-4.72c.34-.7.67-1.61,1-2.28a18.82,18.82,0,0,1,3.42,2c1,.62,1.83,3.47,3,7.46A47.84,47.84,0,0,1,109.43,34.7Z"/><path id="body-2" data-name="body" class="cls-4" d="M136,68c0,1.45-.05,2.89-.14,4.32A68,68,0,1,1,100.74,8.39,43,43,0,0,0,98.79,13c-.05.12-.1.26-.14.38A44.48,44.48,0,0,0,44.26,54.48c0,.72,0,1.45,0,2.19a44.45,44.45,0,1,0,84.52-19.28A67.67,67.67,0,0,1,136,68Z"/><g id="type-2" data-name="type"><path class="cls-5" d="M166.24,65.85h-8.7L152.27,96.3h-4.19l5.27-30.45h-8.7l.66-3.68H166.9Z"/><path class="cls-5" d="M173.29,73.56c1.9-2.11,4-3.13,6.17-3.07a4.91,4.91,0,0,1,3.83,1.61,7.18,7.18,0,0,1,1.58,4.42,18.45,18.45,0,0,1-.07,3.16L182,96.3h-4l2.78-16.69.1-1.85c0-2.39-1-3.61-2.95-3.66q-2.41-.06-4.5,2.74l-.71,1L169.54,96.3h-4l6.26-36h4.05Z"/><path class="cls-5" d="M197.67,96.77a7.39,7.39,0,0,1-6.38-3.07c-1.4-2-1.92-4.77-1.54-8.25l.3-2.51a17.15,17.15,0,0,1,3.6-9.25,8.88,8.88,0,0,1,7.3-3.22,6.64,6.64,0,0,1,5.43,2.47,10.46,10.46,0,0,1,1.72,6.69l-.21,2.82-.35,2.41-13.6,0a22.65,22.65,0,0,0-.28,3.3,5.82,5.82,0,0,0,1.17,3.72A4,4,0,0,0,198,93.23a6.81,6.81,0,0,0,3-.6,10.47,10.47,0,0,0,3.08-2.26L206,93a8.87,8.87,0,0,1-3.7,2.88A11.37,11.37,0,0,1,197.67,96.77Zm3-22.76c-2.76-.13-4.7,1.55-5.81,5l-.63,2.28,9.72,0,.12-.61a16.38,16.38,0,0,0,.14-2.25C204.17,75.62,203,74.13,200.69,74Z"/><path class="cls-5" d="M224.29,74.81a8.3,8.3,0,0,0-1.8-.22c-2.05,0-3.73,1.18-5.06,3.54L214.29,96.3h-4.06l4.41-25.36,3.91,0L218,73.52c1.48-2.11,3.16-3.14,5-3.1a9.57,9.57,0,0,1,1.73.35Z"/><path class="cls-5" d="M232.83,70.91l-.5,2.37a8,8,0,0,1,6.24-2.81,6.05,6.05,0,0,1,3.24,1,4.94,4.94,0,0,1,2,2.7c2-2.49,4.32-3.72,6.92-3.68a5.5,5.5,0,0,1,4,1.61,6.93,6.93,0,0,1,1.71,4.32,17.65,17.65,0,0,1,0,3.25L253.64,96.3h-4l2.77-16.71.07-2a3.94,3.94,0,0,0-.88-2.59,3,3,0,0,0-2.38-.93,4.34,4.34,0,0,0-3.33,1.5,6.64,6.64,0,0,0-1.8,3.68v.12l-2.89,16.9h-4.08l2.79-16.69a12.22,12.22,0,0,0,0-1.92q-.16-3.45-3.19-3.56T232,77.27l-3.28,19h-4l4.4-25.36Z"/><path class="cls-5" d="M261.56,82.49a16.39,16.39,0,0,1,3.74-8.8,9.24,9.24,0,0,1,7.49-3.22,7.39,7.39,0,0,1,4.68,1.63,8.58,8.58,0,0,1,2.69,4.3,15.18,15.18,0,0,1,.43,6l-.28,2.39a16.16,16.16,0,0,1-3.75,8.74,9.33,9.33,0,0,1-7.48,3.19,7.44,7.44,0,0,1-4.68-1.62,8.5,8.5,0,0,1-2.69-4.29,15.07,15.07,0,0,1-.43-6Zm3.63,4.06a9.08,9.08,0,0,0,1,4.87,3.62,3.62,0,0,0,3.15,1.83,5.39,5.39,0,0,0,4.5-1.93,12,12,0,0,0,2.39-6.16l.35-2.74.12-1.68a9,9,0,0,0-1-4.9A3.66,3.66,0,0,0,272.53,74a5.29,5.29,0,0,0-4.61,2.28A13.78,13.78,0,0,0,265.54,83l-.28,2.32Z"/><path class="cls-5" d="M300.16,87.49a5.16,5.16,0,0,0-.7-3.58,9,9,0,0,0-4-2.75,18.35,18.35,0,0,1-4.61-2.7,8.27,8.27,0,0,1-3-7.26,10,10,0,0,1,3.37-6.86,10.21,10.21,0,0,1,7.32-2.64,8.31,8.31,0,0,1,6.52,3A10,10,0,0,1,307.12,72H302.9a7.4,7.4,0,0,0-1-4.91,4.27,4.27,0,0,0-3.65-1.73A5.9,5.9,0,0,0,294,66.92a6.45,6.45,0,0,0-2,4.19,4.48,4.48,0,0,0,.89,3.39,9.55,9.55,0,0,0,3.93,2.66,17.68,17.68,0,0,1,4.39,2.5,8.53,8.53,0,0,1,3.12,7.78,9.77,9.77,0,0,1-3.36,6.8,10.75,10.75,0,0,1-7.56,2.53,9.07,9.07,0,0,1-6.87-3,9.88,9.88,0,0,1-2.34-7.39l4.22,0a6.74,6.74,0,0,0,1.12,4.83,5,5,0,0,0,4.1,1.85A6.15,6.15,0,0,0,298,91.66,6.25,6.25,0,0,0,300.16,87.49Z"/><path class="cls-5" d="M317.32,96.77a7.38,7.38,0,0,1-6.38-3.07c-1.4-2-1.92-4.77-1.54-8.25l.3-2.51c.49-3.94,1.68-7,3.6-9.25a8.88,8.88,0,0,1,7.3-3.22A6.62,6.62,0,0,1,326,72.94c1.22,1.59,1.79,3.82,1.73,6.69l-.21,2.82-.35,2.41-13.6,0a21.31,21.31,0,0,0-.28,3.3,5.82,5.82,0,0,0,1.17,3.72,4,4,0,0,0,3.21,1.37,6.81,6.81,0,0,0,3-.6,10.59,10.59,0,0,0,3.08-2.26l1.9,2.65a8.93,8.93,0,0,1-3.7,2.88A11.37,11.37,0,0,1,317.32,96.77Zm3-22.76c-2.76-.13-4.7,1.55-5.81,5l-.63,2.28,9.72,0,.12-.61a18.12,18.12,0,0,0,.14-2.25C323.82,75.62,322.64,74.13,320.34,74Z"/><path class="cls-5" d="M339,93.27A4.39,4.39,0,0,0,342.4,92a7.16,7.16,0,0,0,1.89-3.7l3.82,0A10,10,0,0,1,345,94.47a8.44,8.44,0,0,1-6.14,2.32,7.55,7.55,0,0,1-5.34-2,8.65,8.65,0,0,1-2.39-5.46,18.23,18.23,0,0,1,0-4.24l.33-2.55q.76-5.94,3.62-9a9.23,9.23,0,0,1,7.42-3,6.74,6.74,0,0,1,5.45,2.58,9.92,9.92,0,0,1,1.77,6.63l-3.83,0c.1-3.67-1.11-5.56-3.63-5.65q-5.5-.21-6.65,7.85a37.22,37.22,0,0,0-.59,6.8Q335.23,93.21,339,93.27Z"/><path class="cls-5" d="M364.78,94.07a7.48,7.48,0,0,1-6.07,2.72,5,5,0,0,1-4.14-2,8.79,8.79,0,0,1-1.44-5.37l.12-2.13L356,70.94h4l-2.72,16.47-.09,1.71a5,5,0,0,0,.55,2.83,2.19,2.19,0,0,0,1.93,1.16c2.27.11,4.12-1,5.58-3.36l3.23-18.81h4.06L368.15,96.3h-3.82Z"/><path class="cls-5" d="M388.43,74.81a8.38,8.38,0,0,0-1.81-.22q-3.06,0-5.06,3.54L378.42,96.3h-4.06l4.41-25.36,3.92,0-.57,2.61q2.24-3.17,5-3.1a9.57,9.57,0,0,1,1.73.35Z"/><path class="cls-5" d="M393.14,96.3h-4.06l4.41-25.36h4.05Zm1.29-32.06a2.94,2.94,0,0,1,.65-1.76,2.17,2.17,0,0,1,1.67-.8,2,2,0,0,1,1.66.68,2.42,2.42,0,0,1,.61,1.8,2.82,2.82,0,0,1-.67,1.77,2.13,2.13,0,0,1-1.67.77A2,2,0,0,1,395,66,2.46,2.46,0,0,1,394.43,64.24Z"/><path class="cls-5" d="M410.44,64.8l-1.08,6.14h3.72l-.58,3.35h-3.71l-2.67,15.77,0,.94c-.07,1.33.41,2,1.43,2a6.82,6.82,0,0,0,1.68-.23l-.35,3.54a7.14,7.14,0,0,1-2.65.42A3.53,3.53,0,0,1,403,95a8.12,8.12,0,0,1-.79-5l2.57-15.7H401l.61-3.35h3.73l1.07-6.14Z"/><path class="cls-5" d="M421.52,89.34l7.69-18.4h4.43l-13.13,29.3a13.1,13.1,0,0,1-3.17,4.81,5.6,5.6,0,0,1-4,1.56,13.14,13.14,0,0,1-2.3-.42l.4-3.52.87.14q3.07.15,4.78-3.14l1.71-3.84-2.86-24.89h4.27Z"/><path class="cls-5" d="M159.85,54.59v-9.4H151.1v9.4h-7.95V29.82h7.95v9h8.75v-9h8V54.59Z"/><path class="cls-5" d="M190.32,37.69q2.87,2.54,2.87,7.39t-2.87,7.4c-1.9,1.69-4.53,2.54-7.86,2.54s-6-.84-7.85-2.52-2.84-4.15-2.84-7.42.94-5.73,2.84-7.41,4.51-2.52,7.85-2.52S188.42,36,190.32,37.69Zm-11.39,6.38v2.06c0,2.69,1.17,4,3.53,4s3.56-1.34,3.56-4V44.07Q186,40,182.46,40C180.1,40,178.93,41.36,178.93,44.07Z"/><path class="cls-5" d="M210.43,54.59,210,51.71A7.68,7.68,0,0,1,207,54.14a8.82,8.82,0,0,1-3.84.88,6.31,6.31,0,0,1-5-1.84,7.59,7.59,0,0,1-1.66-5.29V35.58h7.16V47a2.92,2.92,0,0,0,.63,2,2.23,2.23,0,0,0,1.78.74,2.88,2.88,0,0,0,2.17-.87,2.94,2.94,0,0,0,.82-2.12V35.58h7.17v19Z"/><path class="cls-5" d="M236.15,36.64a5,5,0,0,1,2.65,4.63h-6.66a1.52,1.52,0,0,0-.94-1.48,3.29,3.29,0,0,0-1.62-.36c-1.73,0-2.59.41-2.59,1.23,0,.45.3.78.9,1a23.07,23.07,0,0,0,3,.61,31,31,0,0,1,4.21.85,6.93,6.93,0,0,1,3,1.72,4.67,4.67,0,0,1,1.26,3.48,5.49,5.49,0,0,1-2.72,5.18A14.35,14.35,0,0,1,229.44,55a15.64,15.64,0,0,1-4.75-.7,8.4,8.4,0,0,1-3.64-2.18,5.19,5.19,0,0,1-1.41-3.74h6.67v.14a1.79,1.79,0,0,0,1,1.71,4.77,4.77,0,0,0,2.11.49c2,0,3-.47,3-1.41,0-.48-.32-.83-.94-1a20.56,20.56,0,0,0-3.06-.69,33.82,33.82,0,0,1-4.2-.93A7,7,0,0,1,221.37,45a4.55,4.55,0,0,1-1.22-3.37,5.24,5.24,0,0,1,2.64-5,14.18,14.18,0,0,1,6.9-1.47A13,13,0,0,1,236.15,36.64Z"/><path class="cls-5" d="M260.45,37.59c1.84,1.64,2.75,4.13,2.75,7.49v1.23H249a4.49,4.49,0,0,0,.92,3.09,3.63,3.63,0,0,0,2.89,1.05,3.87,3.87,0,0,0,2.65-.76,2.57,2.57,0,0,0,.85-2h6.94a6.32,6.32,0,0,1-2.62,5.39c-1.76,1.3-4.31,2-7.67,2q-5.29,0-8.21-2.47c-1.94-1.64-2.92-4.13-2.92-7.47s.95-5.73,2.85-7.41,4.51-2.52,7.85-2.52S258.61,36,260.45,37.59ZM249,42.92h7a3,3,0,0,0-3.21-3.2Q249.39,39.72,249,42.92Z"/><path class="cls-5" d="M287.68,32.14q3.21,2.76,3.21,7.87h-7.6a5,5,0,0,0-1.13-3.42,4.84,4.84,0,0,0-6.77.25,6.86,6.86,0,0,0-1.13,4.21v2.31a6.88,6.88,0,0,0,1.13,4.19,4,4,0,0,0,3.47,1.53,4.77,4.77,0,0,0,3.5-1.19,4.53,4.53,0,0,0,1.18-3.35h7.35q0,5.09-3.12,7.78c-2.07,1.8-5,2.7-8.8,2.7q-6.33,0-9.59-3.24t-3.26-9.58q0-6.33,3.26-9.57T279,29.39C282.64,29.39,285.55,30.3,287.68,32.14Z"/><path class="cls-5" d="M312.36,37.69q2.86,2.54,2.86,7.39t-2.86,7.4A11.45,11.45,0,0,1,304.5,55q-5,0-7.85-2.52t-2.85-7.42q0-4.89,2.85-7.41t7.85-2.52C307.83,35.15,310.45,36,312.36,37.69ZM301,44.07v2.06c0,2.69,1.17,4,3.53,4s3.56-1.34,3.56-4V44.07q0-4.07-3.56-4.06C302.14,40,301,41.36,301,44.07Z"/><path class="cls-5" d="M348.78,37a7.79,7.79,0,0,1,1.62,5.28V54.59h-7.17V43.14a3.05,3.05,0,0,0-.59-2,2.05,2.05,0,0,0-1.68-.74,2.67,2.67,0,0,0-2,.86,3,3,0,0,0-.79,2.13V54.59H331V43.14a3,3,0,0,0-.6-2,2,2,0,0,0-1.67-.74,2.66,2.66,0,0,0-2.05.86,3,3,0,0,0-.8,2.13V54.59h-7.16v-19h5.87l.47,2.84A7.63,7.63,0,0,1,327.88,36a8.34,8.34,0,0,1,3.76-.88q4.29,0,5.76,3.27a8.21,8.21,0,0,1,6.52-3.27A6.13,6.13,0,0,1,348.78,37Z"/></g></g></g></svg>